<?xml version="1.0" encoding="utf-8"?>
<!-- Generator: Adobe Illustrator 24.0.1, SVG Export Plug-In . SVG Version: 6.00 Build 0)  -->
<svg version="1.1" id="Layer_1" xmlns="http://www.w3.org/2000/svg" xmlns:xlink="http://www.w3.org/1999/xlink" x="0px" y="0px"
	 viewBox="0 0 256.6 136.7" style="enable-background:new 0 0 256.6 136.7;" xml:space="preserve">
<style type="text/css">
	.st0{fill:none;}
	.st1{fill:#E5E7E7;}
	.st2{font-family:'Montserrat-Bold';}
	.st3{font-size:22px;}
	.st4{font-family:'Montserrat-Light';}
	.st5{font-size:6px;}
	.st6{letter-spacing:2;}
	.st7{font-size:18px;}
</style>
<path class="st1" d="M150.7,82.8H92.1c-0.6,0-1.1-0.5-1.1-1.1V23c0-0.6,0.5-1.1,1.1-1.1h58.6c0.6,0,1.1,0.5,1.1,1.1v58.6
	C151.8,82.3,151.3,82.8,150.7,82.8z M93.2,80.5h56.4V24.1H93.2V80.5z"/>
<g>
	<path class="st1" d="M102.8,72.1c-0.3,0-0.6-0.1-0.8-0.3c-0.4-0.4-0.4-1.2,0-1.6l37.2-37.2c0.4-0.4,1.2-0.4,1.6,0s0.4,1.2,0,1.6
		l-37.2,37.2C103.3,71.9,103.1,72.1,102.8,72.1z"/>
</g>
<g>
	<rect x="110" y="31" class="st0" width="22.7" height="15.3"/>
	<text transform="matrix(1 0 0 1 110.038 44.328)" class="st1 st2 st7">A</text>
</g>
<g>
	<rect x="110" y="59.5" class="st0" width="22.7" height="15.3"/>
	<text transform="matrix(1 0 0 1 119.5517 72.828)" class="st1 st2 st7">C</text>
</g>
</svg>
