<?xml version="1.0" encoding="utf-8"?>
<!-- Generator: Adobe Illustrator 24.0.1, SVG Export Plug-In . SVG Version: 6.00 Build 0)  -->
<svg version="1.1" id="Layer_1" xmlns="http://www.w3.org/2000/svg" xmlns:xlink="http://www.w3.org/1999/xlink" x="0px" y="0px"
	 viewBox="0 0 60.9 60.9" style="enable-background:new 0 0 60.9 60.9;" xml:space="preserve">
<style type="text/css">
	.st0{fill:#E5E7E7;}
	.st1{fill:none;}
	.st2{font-family:'Montserrat-Bold';}
	.st3{font-size:18px;}
</style>
<path class="st0" d="M59.8,60.9H1.1c-0.6,0-1.1-0.5-1.1-1.1V1.1C0,0.5,0.5,0,1.1,0h58.6c0.6,0,1.1,0.5,1.1,1.1v58.6
	C60.9,60.4,60.4,60.9,59.8,60.9z M2.3,58.6h56.4V2.3H2.3V58.6z"/>
<g>
	<path class="st0" d="M11.8,50.2c-0.3,0-0.6-0.1-0.8-0.3c-0.4-0.4-0.4-1.2,0-1.6L48.3,11c0.4-0.4,1.2-0.4,1.6,0s0.4,1.2,0,1.6
		L12.6,49.8C12.4,50.1,12.1,50.2,11.8,50.2z"/>
</g>
<g>
	<rect x="19.1" y="9.1" class="st1" width="22.7" height="15.3"/>
	<text transform="matrix(1 0 0 1 19.0916 22.4399)" class="st0 st2 st3">A</text>
</g>
<g>
	<rect x="19.1" y="37.6" class="st1" width="22.7" height="15.3"/>
	<text transform="matrix(1 0 0 1 28.6053 50.9399)" class="st0 st2 st3">C</text>
</g>
</svg>
